<svg width="402" height="344" viewBox="0 0 402 344" fill="none" xmlns="http://www.w3.org/2000/svg">
<path d="M36.0117 170.308C36.0117 212.743 52.8688 253.439 82.8746 283.445C112.88 313.451 153.577 330.308 196.012 330.308C238.446 330.308 279.143 313.451 309.149 283.445C339.155 253.439 356.012 212.743 356.012 170.308C356.012 127.873 339.155 87.1768 309.149 57.171C279.143 27.1652 238.446 10.3081 196.012 10.3081C153.577 10.3081 112.88 27.1652 82.8746 57.171C52.8688 87.1768 36.0117 127.873 36.0117 170.308Z" fill="#289A7D" fill-opacity="0.7"/>
<path d="M96.6712 77.4319L41.5352 201.792" stroke="#24574A" stroke-width="4" stroke-linecap="round" stroke-linejoin="round"/>
<path d="M147.251 283.896L41.5352 201.792" stroke="#24574A" stroke-width="4" stroke-linecap="round" stroke-linejoin="round"/>
<path d="M312.204 160.936L257.412 257.08" stroke="#D6EDE7" stroke-width="4" stroke-linecap="round" stroke-linejoin="round"/>
<path d="M96.6719 77.4319L240.076 46.8999" stroke="#24574A" stroke-width="4" stroke-linecap="round" stroke-linejoin="round"/>
<path d="M312.204 160.936L240.076 46.8999" stroke="#24574A" stroke-width="4" stroke-linecap="round" stroke-linejoin="round"/>
<path d="M312.203 160.936L194.863 187.176L41.5352 201.792" stroke="#24574A" stroke-width="4" stroke-linecap="round" stroke-linejoin="round"/>
<path d="M96.6719 77.4319L147.252 283.896" stroke="#24574A" stroke-width="4" stroke-linecap="round" stroke-linejoin="round"/>
<path d="M240.075 46.8999L194.863 187.176" stroke="#24574A" stroke-width="4" stroke-linecap="round" stroke-linejoin="round"/>
<path d="M96.6719 77.4319L257.412 257.08" stroke="#24574A" stroke-width="4" stroke-linecap="round" stroke-linejoin="round"/>
<path d="M257.412 257.08L147.252 283.896" stroke="#24574A" stroke-width="4" stroke-linecap="round" stroke-linejoin="round"/>
<path d="M41.5352 201.792L240.075 46.8999" stroke="#24574A" stroke-width="4" stroke-linecap="round" stroke-linejoin="round"/>
<path d="M2 194.384C2 200.174 3.14037 205.907 5.356 211.256C7.57163 216.605 10.8191 221.465 14.9131 225.559C19.007 229.653 23.8672 232.9 29.2163 235.116C34.5653 237.332 40.2983 238.472 46.088 238.472C51.8777 238.472 57.6107 237.332 62.9597 235.116C68.3087 232.9 73.169 229.653 77.2629 225.559C81.3569 221.465 84.6044 216.605 86.82 211.256C89.0356 205.907 90.176 200.174 90.176 194.384C90.176 182.691 85.531 171.477 77.2629 163.209C68.9948 154.941 57.7809 150.296 46.088 150.296C34.3951 150.296 23.1812 154.941 14.9131 163.209C6.64497 171.477 2 182.691 2 194.384Z" fill="white" stroke="#24574A" stroke-width="4" stroke-linecap="round" stroke-linejoin="round"/>
<path d="M69.6271 205.612C69.6185 204.654 69.2788 203.729 68.6656 202.993C68.0524 202.258 67.2035 201.757 66.2631 201.576V198.884C66.3007 196.209 65.8063 193.552 64.8086 191.07C63.8108 188.587 62.3297 186.328 60.4511 184.423C58.5726 182.517 56.3341 181.005 53.8658 179.972C51.3975 178.939 48.7486 178.408 46.0731 178.408C43.3975 178.408 40.7486 178.939 38.2803 179.972C35.8121 181.005 33.5736 182.517 31.6951 184.423C29.8165 186.328 28.3353 188.587 27.3376 191.07C26.3398 193.552 25.8454 196.209 25.8831 198.884V201.576C24.9022 201.76 24.0214 202.293 23.4041 203.077C22.7869 203.861 22.4752 204.843 22.527 205.839C22.5789 206.836 22.9906 207.78 23.6858 208.496C24.381 209.212 25.3125 209.651 26.3071 209.732C27.2549 214.273 29.7374 218.349 33.3371 221.275C36.9368 224.201 41.4342 225.798 46.0731 225.798C50.7119 225.798 55.2093 224.201 58.809 221.275C62.4087 218.349 64.8912 214.273 65.8391 209.732C66.8698 209.639 67.8291 209.166 68.5295 208.404C69.2299 207.642 69.6213 206.647 69.6271 205.612Z" fill="white" stroke="#24574A" stroke-width="4" stroke-linecap="round" stroke-linejoin="round"/>
<path d="M32.6328 208.136C32.6328 208.805 32.8987 209.447 33.3721 209.921C33.8454 210.394 34.4874 210.66 35.1568 210.66C35.8262 210.66 36.4682 210.394 36.9415 209.921C37.4149 209.447 37.6808 208.805 37.6808 208.136C37.6808 207.805 37.6155 207.476 37.4887 207.17C37.3618 206.864 37.1759 206.586 36.9415 206.351C36.7072 206.117 36.4289 205.931 36.1227 205.804C35.8165 205.677 35.4883 205.612 35.1568 205.612C34.8254 205.612 34.4971 205.677 34.1909 205.804C33.8847 205.931 33.6064 206.117 33.3721 206.351C33.1377 206.586 32.9518 206.864 32.8249 207.17C32.6981 207.476 32.6328 207.805 32.6328 208.136Z" fill="#D6EDE7"/>
<path d="M54.5 208.136C54.5 208.468 54.5653 208.796 54.6921 209.102C54.819 209.408 55.0049 209.686 55.2393 209.921C55.4736 210.155 55.7519 210.341 56.0581 210.468C56.3643 210.595 56.6925 210.66 57.024 210.66C57.3555 210.66 57.6837 210.595 57.9899 210.468C58.2961 210.341 58.5744 210.155 58.8087 209.921C59.0431 209.686 59.229 209.408 59.3559 209.102C59.4827 208.796 59.548 208.468 59.548 208.136C59.548 207.805 59.4827 207.476 59.3559 207.17C59.229 206.864 59.0431 206.586 58.8087 206.351C58.5744 206.117 58.2961 205.931 57.9899 205.804C57.6837 205.677 57.3555 205.612 57.024 205.612C56.6925 205.612 56.3643 205.677 56.0581 205.804C55.7519 205.931 55.4736 206.117 55.2393 206.351C55.0049 206.586 54.819 206.864 54.6921 207.17C54.5653 207.476 54.5 207.805 54.5 208.136Z" fill="#D6EDE7"/>
<path d="M41.0449 214.176C42.5386 215.174 44.2946 215.706 46.0909 215.706C47.8872 215.706 49.6432 215.174 51.1369 214.176" stroke="#24574A" stroke-width="4" stroke-linecap="round" stroke-linejoin="round"/>
<path d="M67.9608 193.836C67.9999 190.939 67.4632 188.063 66.3817 185.376C65.3002 182.688 63.6955 180.242 61.6608 178.179C59.6261 176.117 57.2019 174.479 54.5291 173.362C51.8562 172.244 48.9879 171.668 46.0908 171.668C43.1936 171.668 40.3253 172.244 37.6524 173.362C34.9796 174.479 32.5554 176.117 30.5207 178.179C28.486 180.242 26.8813 182.688 25.7998 185.376C24.7183 188.063 24.1816 190.939 24.2208 193.836V198.884C24.2208 199.33 24.3977 199.757 24.7128 200.072C25.0279 200.387 25.4552 200.564 25.9008 200.564H29.2688C29.7143 200.564 30.1416 200.387 30.4567 200.072C30.7718 199.757 30.9488 199.33 30.9488 198.884C30.9504 196.881 31.3545 194.898 32.1371 193.054C32.9198 191.209 34.065 189.541 35.5047 188.148C35.8726 187.787 36.3187 187.515 36.8084 187.354C37.2981 187.193 37.8184 187.147 38.3287 187.22C40.4517 187.484 42.4241 188.455 43.9287 189.976C45.9169 192.026 48.5385 193.345 51.3694 193.721C54.2004 194.096 57.0752 193.505 59.5288 192.044C60.3731 193.683 60.9151 195.461 61.1287 197.292C61.1768 197.73 61.3844 198.135 61.7119 198.43C62.0394 198.725 62.464 198.89 62.9048 198.892H66.2688C66.7147 198.891 67.142 198.713 67.4569 198.397C67.7719 198.082 67.9488 197.654 67.9488 197.208L67.9608 193.836Z" fill="white" stroke="#24574A" stroke-width="4" stroke-linecap="round" stroke-linejoin="round"/>
<path d="M67.9608 193.836C67.9999 190.939 67.4632 188.063 66.3817 185.376C65.3002 182.688 63.6955 180.242 61.6608 178.179C59.6261 176.117 57.2019 174.479 54.5291 173.362C51.8562 172.244 48.9879 171.668 46.0908 171.668C43.1936 171.668 40.3253 172.244 37.6524 173.362C34.9796 174.479 32.5554 176.117 30.5207 178.179C28.486 180.242 26.8813 182.688 25.7998 185.376C24.7183 188.063 24.1816 190.939 24.2208 193.836V198.884C24.2208 199.33 24.3977 199.757 24.7128 200.072C25.0279 200.387 25.4552 200.564 25.9008 200.564H29.2688C29.7143 200.564 30.1416 200.387 30.4567 200.072C30.7718 199.757 30.9488 199.33 30.9488 198.884C30.9504 196.881 31.3545 194.898 32.1371 193.054C32.9198 191.209 34.065 189.541 35.5047 188.148C35.8726 187.787 36.3187 187.515 36.8084 187.354C37.2981 187.193 37.8184 187.147 38.3287 187.22C40.4517 187.484 42.4241 188.455 43.9287 189.976C45.9169 192.026 48.5385 193.345 51.3694 193.721C54.2004 194.096 57.0752 193.505 59.5288 192.044C60.3731 193.683 60.9151 195.461 61.1287 197.292C61.1768 197.73 61.3844 198.135 61.7119 198.43C62.0394 198.725 62.464 198.89 62.9048 198.892H66.2688C66.7147 198.891 67.142 198.713 67.4569 198.397C67.7719 198.082 67.9488 197.654 67.9488 197.208L67.9608 193.836Z" stroke="#24574A" stroke-width="4" stroke-linecap="round" stroke-linejoin="round"/>
<path d="M59.5281 192.044C59.7059 191.939 59.8487 191.783 59.9387 191.597C60.0287 191.411 60.0619 191.203 60.0342 190.998C60.0065 190.793 59.919 190.601 59.7828 190.446C59.6465 190.29 59.4675 190.178 59.2681 190.124C56.6276 189.38 54.3423 187.712 52.8281 185.424" fill="#D6EDE7"/>
<path d="M59.5281 192.044C59.7059 191.939 59.8487 191.783 59.9387 191.597C60.0287 191.411 60.0619 191.203 60.0342 190.998C60.0065 190.793 59.919 190.601 59.7828 190.446C59.6465 190.29 59.4675 190.178 59.2681 190.124C56.6276 189.38 54.3423 187.712 52.8281 185.424" stroke="#24574A" stroke-width="4" stroke-linecap="round" stroke-linejoin="round"/>
<path d="M35.9961 201.404C35.9961 201.735 36.0614 202.064 36.1882 202.37C36.3151 202.676 36.501 202.954 36.7354 203.189C36.9697 203.423 37.248 203.609 37.5542 203.736C37.8604 203.863 38.1886 203.928 38.5201 203.928C38.8516 203.928 39.1798 203.863 39.486 203.736C39.7922 203.609 40.0705 203.423 40.3048 203.189C40.5392 202.954 40.7251 202.676 40.852 202.37C40.9788 202.064 41.0441 201.735 41.0441 201.404C41.0441 201.072 40.9788 200.744 40.852 200.438C40.7251 200.132 40.5392 199.854 40.3048 199.619C40.0705 199.385 39.7922 199.199 39.486 199.072C39.1798 198.945 38.8516 198.88 38.5201 198.88C38.1886 198.88 37.8604 198.945 37.5542 199.072C37.248 199.199 36.9697 199.385 36.7354 199.619C36.501 199.854 36.3151 200.132 36.1882 200.438C36.0614 200.744 35.9961 201.072 35.9961 201.404Z" fill="#24574A"/>
<path d="M51.1367 201.404C51.1367 202.073 51.4026 202.715 51.876 203.189C52.3493 203.662 52.9913 203.928 53.6607 203.928C54.3301 203.928 54.9721 203.662 55.4455 203.189C55.9188 202.715 56.1847 202.073 56.1847 201.404C56.1847 200.734 55.9188 200.092 55.4455 199.619C54.9721 199.146 54.3301 198.88 53.6607 198.88C52.9913 198.88 52.3493 199.146 51.876 199.619C51.4026 200.092 51.1367 200.734 51.1367 201.404Z" fill="#24574A"/>
<path d="M46.0871 171.964C48.9522 171.959 51.7901 172.519 54.4387 173.612C57.0873 174.705 59.4946 176.308 61.5231 178.332C62.4176 176.929 62.8987 175.303 62.9111 173.64C62.9111 167.136 55.3791 161.86 46.0871 161.86C36.7951 161.86 29.2871 167.136 29.2871 173.64C29.2935 175.301 29.7676 176.927 30.6551 178.332C32.683 176.309 35.0896 174.705 37.7375 173.612C40.3854 172.52 43.2226 171.96 46.0871 171.964Z" fill="white" stroke="#24574A" stroke-width="4" stroke-linecap="round" stroke-linejoin="round"/>
<path d="M193.783 46.088C193.783 57.7809 198.428 68.9948 206.696 77.2629C214.964 85.531 226.178 90.176 237.871 90.176C249.564 90.176 260.778 85.531 269.046 77.2629C277.314 68.9948 281.959 57.7809 281.959 46.088C281.959 34.3951 277.314 23.1812 269.046 14.9131C260.778 6.64497 249.564 2 237.871 2C226.178 2 214.964 6.64497 206.696 14.9131C198.428 23.1812 193.783 34.3951 193.783 46.088Z" fill="white" stroke="#24574A" stroke-width="4" stroke-linecap="round" stroke-linejoin="round"/>
<path d="M266.469 57.532C266.459 56.4464 266.073 55.3979 265.377 54.5645C264.682 53.7311 263.719 53.1641 262.653 52.96V49.908C262.653 43.8409 260.243 38.0223 255.953 33.7322C251.663 29.4421 245.844 27.032 239.777 27.032C233.71 27.032 227.891 29.4421 223.601 33.7322C219.311 38.0223 216.901 43.8409 216.901 49.908V52.96C215.787 53.1656 214.786 53.7692 214.084 54.6583C213.382 55.5474 213.028 56.6613 213.086 57.7925C213.145 58.9237 213.613 59.9949 214.403 60.8066C215.193 61.6182 216.252 62.1149 217.381 62.204C218.452 67.3523 221.265 71.9744 225.344 75.2925C229.424 78.6105 234.522 80.422 239.781 80.422C245.039 80.422 250.138 78.6105 254.217 75.2925C258.297 71.9744 261.109 67.3523 262.181 62.204C263.348 62.0967 264.434 61.559 265.226 60.6954C266.019 59.8318 266.462 58.7041 266.469 57.532Z" fill="white" stroke="#24574A" stroke-width="4" stroke-linecap="round" stroke-linejoin="round"/>
<path d="M266.469 57.532C266.459 56.4464 266.073 55.3979 265.377 54.5645C264.682 53.7311 263.719 53.1641 262.653 52.96V49.908C262.653 43.8409 260.243 38.0223 255.953 33.7322C251.663 29.4421 245.844 27.032 239.777 27.032C233.71 27.032 227.891 29.4421 223.601 33.7322C219.311 38.0223 216.901 43.8409 216.901 49.908V52.96C215.787 53.1656 214.786 53.7692 214.084 54.6583C213.382 55.5474 213.028 56.6613 213.086 57.7925C213.145 58.9237 213.613 59.9949 214.403 60.8066C215.193 61.6182 216.252 62.1149 217.381 62.204C218.452 67.3523 221.265 71.9744 225.344 75.2925C229.424 78.6105 234.522 80.422 239.781 80.422C245.039 80.422 250.138 78.6105 254.217 75.2925C258.297 71.9744 261.109 67.3523 262.181 62.204C263.348 62.0967 264.434 61.559 265.226 60.6954C266.019 59.8318 266.462 58.7041 266.469 57.532Z" stroke="#24574A" stroke-width="4" stroke-linecap="round" stroke-linejoin="round"/>
<path d="M228.34 52.7599C228.34 53.5184 228.641 54.2459 229.178 54.7822C229.714 55.3186 230.441 55.6199 231.2 55.6199C231.958 55.6199 232.686 55.3186 233.222 54.7822C233.759 54.2459 234.06 53.5184 234.06 52.7599C234.06 52.0014 233.759 51.2739 233.222 50.7376C232.686 50.2012 231.958 49.8999 231.2 49.8999C230.441 49.8999 229.714 50.2012 229.178 50.7376C228.641 51.2739 228.34 52.0014 228.34 52.7599Z" fill="#24574A"/>
<path d="M245.496 52.7599C245.496 53.5184 245.797 54.2459 246.334 54.7822C246.87 55.3186 247.598 55.6199 248.356 55.6199C249.115 55.6199 249.842 55.3186 250.378 54.7822C250.915 54.2459 251.216 53.5184 251.216 52.7599C251.216 52.0014 250.915 51.2739 250.378 50.7376C249.842 50.2012 249.115 49.8999 248.356 49.8999C247.598 49.8999 246.87 50.2012 246.334 50.7376C245.797 51.2739 245.496 52.0014 245.496 52.7599Z" fill="#24574A"/>
<path d="M224.527 60.3839C224.527 61.1424 224.829 61.8699 225.365 62.4062C225.901 62.9426 226.629 63.2439 227.387 63.2439C228.146 63.2439 228.873 62.9426 229.41 62.4062C229.946 61.8699 230.247 61.1424 230.247 60.3839C230.247 59.6254 229.946 58.8979 229.41 58.3616C228.873 57.8252 228.146 57.5239 227.387 57.5239C226.629 57.5239 225.901 57.8252 225.365 58.3616C224.829 58.8979 224.527 59.6254 224.527 60.3839Z" fill="#D6EDE7"/>
<path d="M249.309 60.3839C249.309 61.1424 249.61 61.8699 250.146 62.4062C250.683 62.9426 251.41 63.2439 252.169 63.2439C252.927 63.2439 253.655 62.9426 254.191 62.4062C254.727 61.8699 255.029 61.1424 255.029 60.3839C255.029 59.6254 254.727 58.8979 254.191 58.3616C253.655 57.8252 252.927 57.5239 252.169 57.5239C251.41 57.5239 250.683 57.8252 250.146 58.3616C249.61 58.8979 249.309 59.6254 249.309 60.3839Z" fill="#D6EDE7"/>
<path d="M234.061 67.2319C235.754 68.3608 237.743 68.9633 239.779 68.9633C241.814 68.9633 243.803 68.3608 245.497 67.2319" stroke="#24574A" stroke-width="4" stroke-linecap="round" stroke-linejoin="round"/>
<path d="M214.996 32.7319V49.8879C214.996 50.3933 215.197 50.878 215.554 51.2357C215.91 51.5934 216.395 51.7949 216.9 51.7959H218.828L226.428 32.7319H214.996Z" fill="white" stroke="#24574A" stroke-width="4" stroke-linecap="round" stroke-linejoin="round"/>
<path d="M264.559 34.648C264.558 30.6036 262.951 26.7252 260.091 23.8658C257.231 21.0064 253.352 19.4 249.307 19.4H232.151C231.423 19.4001 230.71 19.1915 230.097 18.7987C229.484 18.4059 228.996 17.8456 228.691 17.184C228.491 16.7406 228.176 16.3587 227.778 16.0775C227.381 15.7963 226.916 15.626 226.431 15.584H223.191C220.271 15.5275 217.434 16.5533 215.225 18.4638C213.016 20.3743 211.592 23.0344 211.227 25.932C210.942 28.9233 211.846 31.9067 213.742 34.2374C215.639 36.5681 218.377 38.059 221.363 38.388C221.903 40.4118 223.037 42.2271 224.619 43.5991C226.202 44.9712 228.16 45.8368 230.239 46.084H234.055C234.206 46.0826 234.352 46.0322 234.471 45.9403C234.591 45.8485 234.677 45.7202 234.716 45.575C234.756 45.4298 234.748 45.2755 234.692 45.1357C234.636 44.9958 234.536 44.878 234.407 44.8C232.675 43.7657 231.414 42.097 230.891 40.148C230.832 39.952 230.819 39.7448 230.855 39.543C230.89 39.3412 230.972 39.1504 231.094 38.986C231.216 38.8215 231.375 38.6879 231.558 38.5959C231.741 38.5039 231.943 38.456 232.147 38.456H247.723C248.224 38.456 248.72 38.5549 249.183 38.7471C249.646 38.9393 250.066 39.221 250.419 39.576L260.743 49.896H262.647C262.898 49.8965 263.146 49.8475 263.378 49.7518C263.61 49.6561 263.82 49.5156 263.998 49.3383C264.175 49.1611 264.315 48.9505 264.411 48.7188C264.507 48.4871 264.556 48.2387 264.555 47.988L264.559 34.648Z" fill="white"/>
<path d="M264.559 34.648C264.558 30.6036 262.951 26.7252 260.091 23.8658C257.231 21.0064 253.352 19.4 249.307 19.4H232.151C231.423 19.4001 230.71 19.1915 230.097 18.7987C229.484 18.4059 228.996 17.8456 228.691 17.184C228.491 16.7406 228.176 16.3587 227.778 16.0775C227.381 15.7963 226.916 15.626 226.431 15.584H223.191C220.271 15.5275 217.434 16.5533 215.225 18.4638C213.016 20.3743 211.592 23.0344 211.227 25.932C210.942 28.9233 211.846 31.9067 213.742 34.2374C215.639 36.5681 218.377 38.059 221.363 38.388C221.903 40.4118 223.037 42.2271 224.619 43.5991C226.202 44.9712 228.16 45.8368 230.239 46.084H234.055C234.206 46.0826 234.352 46.0322 234.471 45.9403C234.591 45.8485 234.677 45.7202 234.716 45.575C234.756 45.4298 234.748 45.2755 234.692 45.1357C234.636 44.9958 234.536 44.878 234.407 44.8C232.675 43.7657 231.414 42.097 230.891 40.148C230.832 39.952 230.819 39.7448 230.855 39.543C230.89 39.3412 230.972 39.1504 231.094 38.986C231.216 38.8215 231.375 38.6879 231.558 38.5959C231.741 38.5039 231.943 38.456 232.147 38.456H247.723C248.224 38.456 248.72 38.5549 249.183 38.7471C249.646 38.9393 250.066 39.221 250.419 39.576L260.743 49.896H262.647C262.898 49.8965 263.146 49.8475 263.378 49.7518C263.61 49.6561 263.82 49.5156 263.998 49.3383C264.175 49.1611 264.315 48.9505 264.411 48.7188C264.507 48.4871 264.556 48.2387 264.555 47.988L264.559 34.648Z" stroke="#24574A" stroke-width="4" stroke-linecap="round" stroke-linejoin="round"/>
<path d="M296.398 254.647L312.405 238.641L340.414 266.652L324.408 282.658L296.398 254.647Z" fill="white" stroke="#24574A" stroke-width="4" stroke-linecap="round" stroke-linejoin="round"/>
<path d="M394.828 336.332L394.064 337.096C390.972 340.163 386.793 341.884 382.438 341.884C378.083 341.884 373.904 340.163 370.812 337.096L320.272 286.536C319.25 285.505 318.676 284.112 318.676 282.66C318.676 281.208 319.25 279.815 320.272 278.784L336.536 262.52C337.566 261.498 338.959 260.924 340.41 260.924C341.861 260.924 343.254 261.498 344.284 262.52L394.828 313.06C396.363 314.584 397.581 316.397 398.412 318.394C399.243 320.391 399.671 322.533 399.671 324.696C399.671 326.859 399.243 329.001 398.412 330.998C397.581 332.995 396.363 334.808 394.828 336.332Z" fill="#D6EDE7"/>
<path d="M394.828 336.332L394.064 337.096C390.972 340.163 386.793 341.884 382.438 341.884C378.083 341.884 373.904 340.163 370.812 337.096L320.272 286.536C319.25 285.505 318.676 284.112 318.676 282.66C318.676 281.208 319.25 279.815 320.272 278.784L336.536 262.52C337.566 261.498 338.959 260.924 340.41 260.924C341.861 260.924 343.254 261.498 344.284 262.52L394.828 313.06C396.363 314.584 397.581 316.397 398.412 318.394C399.243 320.391 399.671 322.533 399.671 324.696C399.671 326.859 399.243 329.001 398.412 330.998C397.581 332.995 396.363 334.808 394.828 336.332Z" stroke="#24574A" stroke-width="4" stroke-linecap="round" stroke-linejoin="round"/>
<path d="M175.973 238.929C187.725 258.133 206.623 271.882 228.512 277.151C250.4 282.42 273.485 278.779 292.689 267.028C311.892 255.276 325.641 236.378 330.91 214.489C336.18 192.601 332.538 169.516 320.787 150.313C314.968 140.804 307.334 132.535 298.319 125.976C289.305 119.418 279.087 114.7 268.249 112.091C257.411 109.482 246.165 109.033 235.153 110.77C224.142 112.507 213.58 116.395 204.072 122.214C194.563 128.033 186.294 135.667 179.736 144.682C173.178 153.696 168.459 163.914 165.85 174.752C163.241 185.59 162.792 196.836 164.529 207.848C166.266 218.859 170.155 229.421 175.973 238.929Z" fill="white" stroke="#24574A" stroke-width="4" stroke-linecap="round" stroke-linejoin="round"/>
<path d="M296.401 146.604C305.897 156.101 312.364 168.201 314.984 181.374C317.604 194.547 316.259 208.201 311.119 220.609C305.979 233.017 297.275 243.623 286.108 251.084C274.941 258.546 261.811 262.528 248.381 262.528C234.95 262.528 221.821 258.546 210.654 251.084C199.486 243.623 190.782 233.017 185.642 220.609C180.502 208.201 179.157 194.547 181.777 181.374C184.397 168.201 190.864 156.101 200.361 146.604C206.667 140.298 214.153 135.295 222.392 131.882C230.632 128.469 239.462 126.712 248.381 126.712C257.299 126.712 266.13 128.469 274.369 131.882C282.608 135.295 290.095 140.298 296.401 146.604Z" fill="#D6EDE7"/>
<path d="M246.744 227.172C238.94 227.216 231.281 229.276 224.508 233.152C217.735 237.029 212.079 242.59 208.088 249.296C219.367 257.6 232.937 262.217 246.94 262.515C260.944 262.813 274.698 258.777 286.32 250.96C282.473 243.802 276.766 237.814 269.801 233.627C262.836 229.44 254.87 227.21 246.744 227.172Z" fill="white"/>
<path d="M246.744 227.172C238.94 227.216 231.281 229.276 224.508 233.152C217.735 237.029 212.079 242.59 208.088 249.296C219.367 257.6 232.937 262.217 246.94 262.515C260.944 262.813 274.698 258.777 286.32 250.96C282.473 243.802 276.766 237.814 269.801 233.627C262.836 229.44 254.87 227.21 246.744 227.172Z" stroke="#24574A" stroke-width="4" stroke-linejoin="round"/>
<path d="M260.159 229.352C259.439 229.123 258.713 228.917 257.979 228.736C257.132 228.522 256.381 228.031 255.844 227.341C255.308 226.651 255.018 225.802 255.019 224.928V211.416H239.111V224.776C239.111 225.655 238.815 226.508 238.272 227.198C237.729 227.889 236.969 228.377 236.115 228.584C235.195 228.808 234.279 229.056 233.375 229.34L233.283 229.46C233.519 232.874 235.041 236.071 237.542 238.405C240.043 240.74 243.338 242.039 246.759 242.039C250.181 242.039 253.475 240.74 255.976 238.405C258.478 236.071 260 232.874 260.235 229.46L260.159 229.352Z" fill="white" stroke="#24574A" stroke-width="4" stroke-linecap="round" stroke-linejoin="round"/>
<path d="M282.561 177.932C282.561 187.48 278.768 196.636 272.016 203.388C265.265 210.139 256.108 213.932 246.561 213.932C237.013 213.932 227.856 210.139 221.105 203.388C214.353 196.636 210.561 187.48 210.561 177.932C210.561 158.028 220.721 142.412 231.057 139.444C231.918 139.196 232.829 139.185 233.696 139.411C234.563 139.637 235.354 140.092 235.985 140.728C247.177 151.984 282.561 137.956 282.561 177.932Z" fill="white"/>
<path d="M282.561 177.932C282.561 187.48 278.768 196.636 272.016 203.388C265.265 210.139 256.108 213.932 246.561 213.932C237.013 213.932 227.856 210.139 221.105 203.388C214.353 196.636 210.561 187.48 210.561 177.932C210.561 158.028 220.721 142.412 231.057 139.444C231.918 139.196 232.829 139.185 233.696 139.411C234.563 139.637 235.354 140.092 235.985 140.728C247.177 151.984 282.561 137.956 282.561 177.932Z" stroke="#24574A" stroke-width="4" stroke-linecap="round" stroke-linejoin="round"/>
<path d="M276.591 186.932L270.547 189.932L266.187 174.676C265.78 173.211 264.827 171.957 263.525 171.172C262.223 170.386 260.669 170.129 259.183 170.452C250.877 172.431 242.222 172.431 233.915 170.452C232.429 170.13 230.876 170.388 229.574 171.173C228.272 171.958 227.32 173.211 226.911 174.676L222.551 189.932L216.599 186.932C208.035 186.932 208.599 201.932 218.095 201.932H218.123C220.003 208.015 223.781 213.337 228.905 217.116C234.029 220.896 240.228 222.935 246.595 222.935C252.962 222.935 259.162 220.896 264.286 217.116C269.409 213.337 273.188 208.015 275.067 201.932C284.575 201.932 285.151 186.932 276.591 186.932Z" fill="white" stroke="#24574A" stroke-width="4" stroke-linecap="round" stroke-linejoin="round"/>
<path d="M233.713 187.684C233.713 188.149 233.805 188.61 233.983 189.04C234.161 189.47 234.422 189.861 234.751 190.19C235.08 190.519 235.471 190.78 235.901 190.958C236.331 191.136 236.791 191.228 237.257 191.228C237.722 191.228 238.183 191.136 238.613 190.958C239.043 190.78 239.434 190.519 239.763 190.19C240.092 189.861 240.353 189.47 240.531 189.04C240.709 188.61 240.801 188.149 240.801 187.684C240.801 187.218 240.709 186.758 240.531 186.328C240.353 185.898 240.092 185.507 239.763 185.178C239.434 184.849 239.043 184.588 238.613 184.41C238.183 184.232 237.722 184.14 237.257 184.14C236.791 184.14 236.331 184.232 235.901 184.41C235.471 184.588 235.08 184.849 234.751 185.178C234.422 185.507 234.161 185.898 233.983 186.328C233.805 186.758 233.713 187.218 233.713 187.684Z" fill="#24574A"/>
<path d="M252.447 187.684C252.447 188.624 252.821 189.525 253.485 190.19C254.15 190.855 255.051 191.228 255.991 191.228C256.931 191.228 257.833 190.855 258.497 190.19C259.162 189.525 259.535 188.624 259.535 187.684C259.535 186.744 259.162 185.843 258.497 185.178C257.833 184.513 256.931 184.14 255.991 184.14C255.051 184.14 254.15 184.513 253.485 185.178C252.821 185.843 252.447 186.744 252.447 187.684Z" fill="#24574A"/>
<path d="M231.629 195.932C231.629 196.526 231.453 197.106 231.123 197.599C230.793 198.093 230.324 198.477 229.776 198.704C229.228 198.931 228.624 198.99 228.042 198.874C227.46 198.758 226.926 198.472 226.506 198.052C226.087 197.632 225.801 197.097 225.686 196.515C225.571 195.933 225.631 195.329 225.858 194.781C226.086 194.233 226.471 193.765 226.965 193.436C227.459 193.107 228.039 192.931 228.633 192.932C229.027 192.932 229.417 193.01 229.78 193.161C230.144 193.311 230.475 193.532 230.753 193.811C231.031 194.09 231.252 194.42 231.402 194.784C231.552 195.148 231.629 195.538 231.629 195.932Z" fill="#D6EDE7"/>
<path d="M267.629 195.932C267.629 196.525 267.453 197.105 267.123 197.599C266.794 198.092 266.325 198.477 265.777 198.704C265.229 198.931 264.626 198.99 264.044 198.874C263.462 198.759 262.927 198.473 262.508 198.053C262.088 197.634 261.802 197.099 261.687 196.517C261.571 195.935 261.63 195.332 261.857 194.784C262.084 194.236 262.469 193.767 262.962 193.438C263.456 193.108 264.036 192.932 264.629 192.932C265.425 192.932 266.188 193.248 266.75 193.811C267.313 194.373 267.629 195.136 267.629 195.932Z" fill="#D6EDE7"/>
<path d="M239.137 205.664C241.358 207.143 243.966 207.932 246.635 207.932C249.303 207.932 251.912 207.143 254.133 205.664" stroke="#24574A" stroke-width="4" stroke-linecap="round" stroke-linejoin="round"/>
<path d="M296.401 146.604C305.897 156.101 312.364 168.201 314.984 181.374C317.604 194.547 316.259 208.201 311.119 220.609C305.979 233.017 297.275 243.623 286.108 251.084C274.941 258.546 261.811 262.528 248.381 262.528C234.95 262.528 221.821 258.546 210.654 251.084C199.486 243.623 190.782 233.017 185.642 220.609C180.502 208.201 179.157 194.547 181.777 181.374C184.397 168.201 190.864 156.101 200.361 146.604C206.667 140.298 214.153 135.295 222.392 131.882C230.632 128.469 239.462 126.712 248.381 126.712C257.299 126.712 266.13 128.469 274.369 131.882C282.608 135.295 290.095 140.298 296.401 146.604Z" stroke="#24574A" stroke-width="4" stroke-linecap="round" stroke-linejoin="round"/>
<path d="M117.912 277.288C117.912 284.727 120.867 291.861 126.127 297.121C131.387 302.381 138.521 305.336 145.96 305.336C153.399 305.336 160.533 302.381 165.793 297.121C171.053 291.861 174.008 284.727 174.008 277.288C174.008 269.849 171.053 262.715 165.793 257.455C160.533 252.195 153.399 249.24 145.96 249.24C138.521 249.24 131.387 252.195 126.127 257.455C120.867 262.715 117.912 269.849 117.912 277.288Z" fill="white" stroke="#24574A" stroke-width="4" stroke-linecap="round" stroke-linejoin="round"/>
<path d="M136.936 276.636C136.936 279.029 137.886 281.325 139.579 283.017C141.271 284.709 143.566 285.66 145.96 285.66C148.353 285.66 150.648 284.709 152.34 283.017C154.033 281.325 154.984 279.029 154.984 276.636V272.124C154.984 269.731 154.033 267.435 152.34 265.743C150.648 264.051 148.353 263.1 145.96 263.1C143.566 263.1 141.271 264.051 139.579 265.743C137.886 267.435 136.936 269.731 136.936 272.124V276.636Z" fill="white" stroke="#24574A" stroke-width="4" stroke-linecap="round" stroke-linejoin="round"/>
<path d="M164.713 298.144C159.565 302.769 152.889 305.328 145.969 305.328C139.048 305.328 132.372 302.769 127.225 298.144C128.765 294.447 131.364 291.288 134.695 289.065C138.027 286.842 141.941 285.655 145.946 285.651C149.951 285.648 153.867 286.829 157.202 289.046C160.537 291.264 163.142 294.418 164.689 298.112" fill="#D6EDE7"/>
<path d="M164.713 298.144C159.565 302.769 152.889 305.328 145.969 305.328C139.048 305.328 132.372 302.769 127.225 298.144C128.765 294.447 131.364 291.288 134.695 289.065C138.027 286.842 141.941 285.655 145.946 285.651C149.951 285.648 153.867 286.829 157.202 289.046C160.537 291.264 163.142 294.418 164.689 298.112" stroke="#24574A" stroke-width="4" stroke-linecap="round" stroke-linejoin="round"/>
<path d="M137.012 270.96C137.249 269.14 138.035 267.436 139.265 266.075C140.495 264.713 142.112 263.759 143.898 263.34C145.684 262.92 147.556 263.056 149.264 263.727C150.972 264.399 152.434 265.576 153.456 267.1C151.32 269.171 148.663 270.623 145.767 271.303C142.871 271.983 139.845 271.864 137.012 270.96Z" fill="#D6EDE7" stroke="#24574A" stroke-width="4" stroke-linecap="round" stroke-linejoin="round"/>
<path d="M69.7285 74.9479C69.7285 82.3867 72.6836 89.5208 77.9436 94.7808C83.2036 100.041 90.3377 102.996 97.7765 102.996C105.215 102.996 112.349 100.041 117.609 94.7808C122.869 89.5208 125.825 82.3867 125.825 74.9479C125.825 67.5091 122.869 60.375 117.609 55.115C112.349 49.8549 105.215 46.8999 97.7765 46.8999C90.3377 46.8999 83.2036 49.8549 77.9436 55.115C72.6836 60.375 69.7285 67.5091 69.7285 74.9479Z" fill="white" stroke="#24574A" stroke-width="4" stroke-linecap="round" stroke-linejoin="round"/>
<path d="M88.748 74.296C88.7978 76.657 89.7705 78.9045 91.4578 80.5566C93.1451 82.2087 95.4126 83.134 97.774 83.134C100.136 83.134 102.403 82.2087 104.09 80.5566C105.778 78.9045 106.75 76.657 106.8 74.296V69.784C106.75 67.4231 105.778 65.1756 104.09 63.5235C102.403 61.8713 100.136 60.946 97.774 60.946C95.4126 60.946 93.1451 61.8713 91.4578 63.5235C89.7705 65.1756 88.7978 67.4231 88.748 69.784V74.296Z" fill="white" stroke="#24574A" stroke-width="4" stroke-linecap="round" stroke-linejoin="round"/>
<path d="M116.523 95.808C111.374 100.431 104.699 102.988 97.7792 102.988C90.8595 102.988 84.1839 100.431 79.0352 95.808C80.5754 92.1112 83.1747 88.9525 86.506 86.7295C89.8372 84.5066 93.7516 83.3186 97.7565 83.3152C101.761 83.3118 105.678 84.493 109.013 86.7103C112.348 88.9276 114.953 92.0818 116.499 95.776" fill="#D6EDE7"/>
<path d="M116.523 95.808C111.374 100.431 104.699 102.988 97.7792 102.988C90.8595 102.988 84.1839 100.431 79.0352 95.808C80.5754 92.1112 83.1747 88.9525 86.506 86.7295C89.8372 84.5066 93.7516 83.3186 97.7565 83.3152C101.761 83.3118 105.678 84.493 109.013 86.7103C112.348 88.9276 114.953 92.0818 116.499 95.776" stroke="#24574A" stroke-width="4" stroke-linecap="round" stroke-linejoin="round"/>
<path d="M88.8281 68.6201C89.0637 66.7995 89.8491 65.094 91.0796 63.7316C92.3101 62.3692 93.927 61.4147 95.7143 60.9955C97.5017 60.5764 99.3743 60.7127 101.082 61.3861C102.79 62.0595 104.252 63.2379 105.272 64.7641C103.136 66.8339 100.479 68.2856 97.583 68.9647C94.6873 69.6437 91.6616 69.5246 88.8281 68.6201Z" fill="#D6EDE7" stroke="#24574A" stroke-width="4" stroke-linecap="round" stroke-linejoin="round"/>
</svg>
